Coordinates
version=1
nRows=21
nColumns=27
inDegrees=yes

Units are S.I. units (second, meters, Newtons, ...)
If the header above contains a line with 'inDegrees', this indicates whether rotational values are in degrees (yes) or radians (no).

endheader
time	pelvis_rotation	pelvis_tilt	pelvis_list	pelvis_tx	pelvis_ty	pelvis_tz	hip_flexion_r	hip_adduction_r	hip_rotation_r	knee_angle_r	knee_rotation_r	knee_adduction_r	knee_angle_r_beta	ankle_angle_r	subtalar_angle_r	mtp_angle_r	hip_flexion_l	hip_adduction_l	hip_rotation_l	knee_angle_l	knee_rotation_l	knee_adduction_l	knee_angle_l_beta	ankle_angle_l	subtalar_angle_l	mtp_angle_l
      4.19000000	      5.12308464	    -30.50647257	      4.13014288	     -0.02542012	      0.65071277	     -1.14099612	     92.66958069	    -41.64880886	      2.03745195	     77.21002812	      0.00000000	      0.00000000	      1.34756921	      5.49094031	      0.00000000	      0.00000000	     89.36860434	    -28.69920444	      3.74633527	     69.61585672	      0.00000000	      0.00000000	      1.21502591	      1.54291090	      0.00000000	      0.00000000
      4.19500000	      5.16840010	    -30.50272962	      4.15882289	     -0.02558144	      0.64913946	     -1.14099375	     92.97692455	    -41.75877833	      2.21926640	     77.49117732	      0.00000000	      0.00000000	      1.35247619	      5.53594053	      0.00000000	      0.00000000	     89.63123847	    -28.75365621	      3.80347266	     69.90080035	      0.00000000	      0.00000000	      1.21999912	      1.58673763	      0.00000000	      0.00000000
      4.20000000	      5.14015471	    -30.54073318	      4.13746975	     -0.02578586	      0.64755383	     -1.14091674	     93.30600682	    -41.77725409	      2.39127371	     77.77460423	      0.00000000	      0.00000000	      1.35742292	      5.59585807	      0.00000000	      0.00000000	     89.95315922	    -28.89338881	      3.87314612	     70.19003418	      0.00000000	      0.00000000	      1.22504720	      1.57947102	      0.00000000	      0.00000000
      4.20500000	      5.22076620	    -30.56263837	      4.17359205	     -0.02595897	      0.64597910	     -1.14090836	     93.63763547	    -41.91839877	      2.56438052	     78.05726836	      0.00000000	      0.00000000	      1.36235634	      5.66851999	      0.00000000	      0.00000000	     90.26093254	    -28.91815382	      3.94693756	     70.47752933	      0.00000000	      0.00000000	      1.23006494	      1.59657774	      0.00000000	      0.00000000
      4.21000000	      5.26534387	    -30.57753768	      4.19414738	     -0.02612371	      0.64443476	     -1.14086721	     93.94999123	    -42.01451752	      2.74072038	     78.33598130	      0.00000000	      0.00000000	      1.36722080	      5.72853256	      0.00000000	      0.00000000	     90.54823424	    -28.97711782	      4.01532759	     70.75686905	      0.00000000	      0.00000000	      1.23494033	      1.60861748	      0.00000000	      0.00000000
      4.21500000	      5.26599009	    -30.62643728	      4.16550593	     -0.02631548	      0.64288292	     -1.14078521	     94.26743546	    -42.06284099	      2.87712346	     78.60644585	      0.00000000	      0.00000000	      1.37194129	      5.76755884	      0.00000000	      0.00000000	     90.89481948	    -29.08320960	      4.11706440	     71.04427966	      0.00000000	      0.00000000	      1.23995659	      1.62699433	      0.00000000	      0.00000000
      4.22000000	      5.34055140	    -30.66145828	      4.20609924	     -0.02647592	      0.64137220	     -1.14074574	     94.61061739	    -42.18329474	      3.06584787	     78.88536300	      0.00000000	      0.00000000	      1.37680932	      5.85478889	      0.00000000	      0.00000000	     91.19562250	    -29.11169219	      4.18005994	     71.30823871	      0.00000000	      0.00000000	      1.24456355	      1.62175676	      0.00000000	      0.00000000
      4.22500000	      5.37630345	    -30.69815979	      4.23095636	     -0.02662830	      0.63984753	     -1.14067675	     94.95683221	    -42.26371745	      3.25742048	     79.16535975	      0.00000000	      0.00000000	      1.38169618	      5.91866078	      0.00000000	      0.00000000	     91.49605032	    -29.18044679	      4.24017286	     71.58020644	      0.00000000	      0.00000000	      1.24931028	      1.63621400	      0.00000000	      0.00000000
      4.23000000	      5.36177863	    -30.76622971	      4.08299878	     -0.02679959	      0.63828035	     -1.14052266	     95.15624251	    -42.29688000	      3.22317146	     79.42213243	      0.00000000	      0.00000000	      1.38617771	      6.00708603	      0.00000000	      0.00000000	     91.97116447	    -29.32080969	      4.48067009	     71.89758447	      0.00000000	      0.00000000	      1.25484957	      1.57024512	      0.00000000	      0.00000000
      4.23500000	      5.44509149	    -30.78440861	      4.23965698	     -0.02693755	      0.63682828	     -1.14051134	     95.60859350	    -42.41210610	      3.58664027	     79.70832073	      0.00000000	      0.00000000	      1.39117264	      6.05010987	      0.00000000	      0.00000000	     92.13714808	    -29.32289801	      4.40637604	     72.11860117	      0.00000000	      0.00000000	      1.25870704	      1.64187009	      0.00000000	      0.00000000
      4.24000000	      5.54066674	    -30.81119328	      4.27525665	     -0.02705484	      0.63532222	     -1.14047061	     95.92951470	    -42.56062229	      3.75070569	     79.98267537	      0.00000000	      0.00000000	      1.39596103	      6.12752660	      0.00000000	      0.00000000	     92.43517737	    -29.32765598	      4.48903397	     72.37733532	      0.00000000	      0.00000000	      1.26322281	      1.64349644	      0.00000000	      0.00000000
      4.24500000	      5.49541353	    -30.88017990	      4.26286952	     -0.02724310	      0.63382229	     -1.14033724	     96.29512321	    -42.53535974	      3.94952128	     80.25265304	      0.00000000	      0.00000000	      1.40067303	      6.18608726	      0.00000000	      0.00000000	     92.76270182	    -29.47840800	      4.54893150	     72.64160787	      0.00000000	      0.00000000	      1.26783523	      1.63554924	      0.00000000	      0.00000000
      4.25000000	      5.59047078	    -30.90448637	      4.31482292	     -0.02734821	      0.63228577	     -1.14030409	     96.63626171	    -42.67624498	      4.15028128	     80.53007834	      0.00000000	      0.00000000	      1.40551501	      6.24948873	      0.00000000	      0.00000000	     93.04839256	    -29.48183027	      4.62017252	     72.90727131	      0.00000000	      0.00000000	      1.27247193	      1.67307540	      0.00000000	      0.00000000
      4.25500000	      5.54534853	    -30.95487652	      4.28034327	     -0.02749428	      0.63075076	     -1.14016736	     96.96045372	    -42.66724690	      4.30462287	     80.80182198	      0.00000000	      0.00000000	      1.41025784	      6.31462697	      0.00000000	      0.00000000	     93.37804980	    -29.63423399	      4.71223811	     73.18053574	      0.00000000	      0.00000000	      1.27724130	      1.66807514	      0.00000000	      0.00000000
      4.26000000	      5.60450858	    -30.99513552	      4.24524311	     -0.02760073	      0.62919216	     -1.14009825	     97.22197869	    -42.77385316	      4.39886451	     81.06293815	      0.00000000	      0.00000000	      1.41481517	      6.41024484	      0.00000000	      0.00000000	     93.74645521	    -29.67321445	      4.87982001	     73.46685811	      0.00000000	      0.00000000	      1.28223857	      1.65699589	      0.00000000	      0.00000000
      4.26500000	      5.69280814	    -31.01021812	      4.36967954	     -0.02774506	      0.62759345	     -1.14007363	     97.66639641	    -42.89194240	      4.73661463	     81.36385909	      0.00000000	      0.00000000	      1.42006723	      6.45926587	      0.00000000	      0.00000000	     93.96607400	    -29.67775783	      4.86258205	     73.71889163	      0.00000000	      0.00000000	      1.28663738	      1.70779274	      0.00000000	      0.00000000
      4.27000000	      5.68899948	    -31.03838043	      4.37683162	     -0.02786704	      0.62596970	     -1.13997527	     98.01196540	    -42.92528692	      4.94354887	     81.65141583	      0.00000000	      0.00000000	      1.42508605	      6.53201305	      0.00000000	      0.00000000	     94.26880709	    -29.78103828	      4.94480102	     73.99965116	      0.00000000	      0.00000000	      1.29153756	      1.71403189	      0.00000000	      0.00000000
      4.27500000	      5.89948749	    -30.94404735	      3.82252736	     -0.02784988	      0.62439510	     -1.13980936	     97.44109428	    -43.31806097	      4.07890208	     81.82717537	      0.00000000	      0.00000000	      1.42815363	      6.71838132	      0.00000000	      0.00000000	     94.94667720	    -29.56105059	      5.92256899	     74.36808729	      0.00000000	      0.00000000	      1.29796798	      1.72325338	      0.00000000	      0.00000000
      4.28000000	      5.76337727	    -31.02047224	      4.45009500	     -0.02804515	      0.62267970	     -1.13986115	     98.66643307	    -43.08948436	      5.39675403	     82.22765069	      0.00000000	      0.00000000	      1.43514324	      6.70915032	      0.00000000	      0.00000000	     94.77288794	    -29.88979595	      5.08696034	     74.55533667	      0.00000000	      0.00000000	      1.30123610	      1.78306788	      0.00000000	      0.00000000
      4.28500000	      5.69834533	    -31.03815271	      4.37380526	     -0.02819652	      0.62095468	     -1.13971216	     98.93790819	    -43.05763504	      5.53401359	     82.51711323	      0.00000000	      0.00000000	      1.44019532	      6.82865021	      0.00000000	      0.00000000	     95.13115250	    -30.05159331	      5.25142533	     74.85997542	      0.00000000	      0.00000000	      1.30655305	      1.74988045	      0.00000000	      0.00000000
      4.29000000	      5.76249462	    -31.01048098	      4.43267681	     -0.02825923	      0.61920267	     -1.13968994	     99.28959343	    -43.17573169	      5.79564023	     82.82436875	      0.00000000	      0.00000000	      1.44555794	      6.89740697	      0.00000000	      0.00000000	     95.37076749	    -30.07816200	      5.31906856	     75.15432600	      0.00000000	      0.00000000	      1.31169044	      1.80663434	      0.00000000	      0.00000000
